<svg version="1.0" xmlns="http://www.w3.org/2000/svg"
 width="422.000000pt" height="512.000000pt" viewBox="0 0 422.000000 512.000000"
 preserveAspectRatio="xMidYMid meet">
<g transform="translate(0.000000,512.000000) scale(0.100000,-0.100000)"
fill="#982ed2" stroke="none">
<path d="M1885 4276 c-277 -63 -491 -274 -560 -551 -24 -97 -23 -256 4 -358
34 -130 92 -229 196 -332 150 -151 312 -219 520 -218 207 0 370 68 515 213
149 149 209 287 218 496 3 100 1 135 -16 202 -64 253 -241 444 -488 528 -65
22 -101 27 -204 30 -82 2 -146 -1 -185 -10z"/>
<path d="M1656 2509 c-402 -61 -767 -324 -950 -683 -94 -184 -137 -365 -139
-594 -2 -187 11 -231 92 -313 97 -97 -21 -89 1390 -89 l1236 0 60 29 c72 34
137 102 159 168 21 62 21 304 1 433 -42 256 -166 493 -359 686 -175 175 -353
276 -601 341 -98 26 -107 26 -465 29 -201 1 -391 -2 -424 -7z"/>
</g>
</svg>
