<svg version="1.0" xmlns="http://www.w3.org/2000/svg"
 width="225.000000pt" height="225.000000pt" viewBox="0 0 225.000000 225.000000"
 preserveAspectRatio="xMidYMid meet">
<g transform="translate(0.000000,225.000000) scale(0.100000,-0.100000)"
fill="#000000" stroke="none">
<path d="M860 2070 c-342 -62 -596 -211 -748 -439 -32 -47 -68 -116 -80 -153
-58 -177 -31 -365 74 -525 52 -78 174 -199 256 -251 l67 -43 -15 -42 c-36
-102 -86 -185 -158 -264 -102 -112 -116 -142 -79 -178 22 -23 100 -14 236 26
169 50 345 142 476 247 l44 36 191 1 c213 2 317 18 487 75 400 134 658 446
635 769 -26 350 -310 617 -776 728 -148 35 -454 42 -610 13z"/>
</g>
</svg>
