<svg version="1.0" xmlns="http://www.w3.org/2000/svg"
 width="500.000000pt" height="500.000000pt" viewBox="0 0 500.000000 500.000000"
 preserveAspectRatio="xMidYMid meet">
<g transform="translate(0.000000,500.000000) scale(0.100000,-0.100000)"
fill="#982ed2" stroke="none">
<path d="M1820 4170 c-253 -66 -455 -266 -521 -517 -28 -107 -28 -260 0 -366
54 -204 195 -375 387 -468 101 -49 191 -69 315 -69 198 0 357 67 504 215 73
72 99 107 133 175 59 120 76 192 76 330 0 138 -17 211 -75 328 -71 140 -202
264 -353 332 -136 61 -321 77 -466 40z"/>
<path d="M3347 3393 l-147 -148 162 -162 163 -163 -163 -163 -162 -162 150
-150 150 -150 162 163 163 162 162 -162 163 -163 145 145 c80 80 145 150 145
156 0 7 -70 79 -155 162 -85 82 -155 153 -155 158 0 5 70 79 155 164 85 85
155 159 155 165 0 6 -65 75 -145 155 l-145 145 -163 -163 -162 -162 -160 160
c-88 88 -162 160 -165 160 -3 0 -71 -66 -153 -147z"/>
<path d="M1585 2444 c-340 -60 -641 -260 -833 -553 -139 -212 -212 -487 -200
-757 4 -85 9 -111 32 -157 29 -60 73 -104 139 -139 l42 -23 1214 -3 c1390 -3
1275 -10 1372 87 77 77 89 117 89 290 0 159 -18 282 -59 409 -146 445 -520
766 -985 847 -120 20 -692 20 -811 -1z"/>
</g>
</svg>
