<svg version="1.0" xmlns="http://www.w3.org/2000/svg"
 width="348.000000pt" height="329.000000pt" viewBox="0 0 348.000000 329.000000"
 preserveAspectRatio="xMidYMid meet">
<g transform="translate(0.000000,329.000000) scale(0.100000,-0.100000)"
fill="#982ed2" stroke="none">
<path d="M1675 2888 c-21 -12 -47 -35 -430 -384 -127 -115 -323 -292 -435
-394 -293 -264 -351 -330 -330 -369 6 -12 20 -21 31 -21 48 0 109 48 413 324
105 95 261 235 347 312 86 76 221 199 301 272 80 72 150 132 156 132 6 0 34
-22 64 -48 29 -27 157 -140 283 -251 127 -112 340 -301 474 -420 327 -290 398
-341 440 -314 26 16 24 46 -7 89 -28 38 -193 191 -368 341 l-73 63 -3 209 c-3
186 -5 212 -21 228 -15 16 -37 18 -156 18 -165 0 -171 -3 -171 -81 0 -30 -2
-54 -5 -54 -3 0 -92 76 -198 168 -106 93 -202 174 -214 180 -27 15 -72 15 -98
0z"/>
<path d="M1672 2543 c-113 -67 -429 -333 -752 -634 l-150 -140 0 -555 c0 -379
3 -562 11 -576 6 -11 29 -28 52 -39 39 -17 73 -19 515 -19 l472 0 0 428 c0
405 1 428 19 456 35 53 48 55 279 56 174 0 218 -3 243 -16 58 -29 59 -42 59
-504 l0 -420 94 0 c101 0 138 9 174 42 l22 21 0 567 0 566 -232 211 c-409 371
-684 593 -733 593 -6 0 -39 -17 -73 -37z m-364 -1120 l-3 -98 -117 -3 -118 -3
0 68 c1 107 30 132 158 133 l83 0 -3 -97z m288 63 c32 -32 34 -38 34 -100 l0
-66 -120 0 -120 0 0 100 0 100 86 0 c84 0 87 -1 120 -34z m-288 -343 l-3 -98
-83 -3 c-83 -3 -83 -3 -118 32 -32 32 -34 38 -34 100 l0 66 120 0 121 0 -3
-97z m322 42 c0 -108 -42 -145 -165 -145 l-75 0 0 100 0 100 120 0 120 0 0
-55z"/>
</g>
</svg>
