<?xml version="1.0" standalone="no"?>
<!DOCTYPE svg PUBLIC "-//W3C//DTD SVG 20010904//EN"
 "http://www.w3.org/TR/2001/REC-SVG-20010904/DTD/svg10.dtd">
<svg version="1.0" xmlns="http://www.w3.org/2000/svg"
 width="234.000000pt" height="234.000000pt" viewBox="0 0 234.000000 234.000000"
 preserveAspectRatio="xMidYMid meet">
<metadata>
Created by potrace 1.16, written by Peter Selinger 2001-2019
</metadata>
<g transform="translate(0.000000,234.000000) scale(0.100000,-0.100000)"
fill="#982ed2" stroke="none">
<path d="M1060 2325 c-8 -2 -49 -9 -90 -15 -470 -76 -861 -468 -945 -948 -19
-111 -19 -293 0 -404 74 -420 382 -777 783 -907 141 -46 207 -54 412 -49 164
5 195 8 275 32 189 57 345 147 481 278 146 140 237 277 299 452 47 132 65 242
65 405 -1 314 -108 579 -328 805 -178 183 -411 304 -659 341 -86 13 -249 18
-293 10z m256 -176 c151 -21 316 -86 439 -174 77 -55 199 -182 254 -264 220
-325 220 -777 0 -1102 -55 -82 -177 -209 -254 -264 -404 -288 -960 -232 -1304
131 -179 189 -271 421 -271 684 0 263 92 495 269 682 229 242 541 353 867 307z"/>
<path d="M1189 1847 c-100 -67 -107 -201 -14 -272 112 -86 272 1 262 143 -4
59 -25 94 -77 130 -46 31 -124 31 -171 -1z"/>
<path d="M1122 1376 c-100 -12 -187 -27 -193 -33 -6 -6 -9 -19 -7 -29 3 -16
15 -20 68 -24 57 -4 65 -8 68 -27 2 -12 -29 -144 -69 -295 -83 -311 -90 -376
-51 -440 71 -114 264 -99 390 30 62 63 101 136 86 159 -17 27 -32 26 -60 -4
-40 -44 -76 -63 -116 -63 -69 0 -70 -8 61 493 53 201 58 229 45 242 -9 8 -21
14 -27 14 -7 -1 -94 -11 -195 -23z"/>
</g>
</svg>
