<svg version="1.0" xmlns="http://www.w3.org/2000/svg"
     width="167.000000pt" height="147.000000pt" viewBox="0 0 167.000000 147.000000"
 preserveAspectRatio="xMidYMid meet">
<g transform="translate(0.000000,147.000000) scale(0.100000,-0.100000)"
fill="#982ed2" stroke="none">
<path d="M275 1116 c-17 -7 -40 -26 -50 -42 -19 -27 -20 -51 -23 -394 -3 -409
-1 -428 57 -467 l34 -23 527 0 527 0 34 23 c58 39 60 58 57 467 -3 343 -4 367
-23 394 -37 56 -39 56 -597 56 -404 -1 -519 -4 -543 -14z m1063 -73 c20 -17
21 -29 24 -291 2 -149 0 -272 -3 -272 -3 0 -48 34 -100 75 -52 41 -97 75 -100
75 -4 0 -58 -41 -120 -91 -63 -50 -119 -93 -126 -96 -6 -2 -83 56 -170 131
-87 74 -166 136 -175 136 -10 0 -77 -51 -149 -112 -72 -62 -133 -113 -136
-113 -3 0 -5 122 -4 270 2 260 2 271 22 288 20 16 60 17 519 17 460 0 499 -1
518 -17z"/>
<path d="M883 951 c-105 -48 -103 -206 3 -253 83 -36 172 2 194 83 22 80 -17
159 -88 179 -50 13 -60 13 -109 -9z"/>
</g>
</svg>
