<svg version="1.0" xmlns="http://www.w3.org/2000/svg"
 width="300.000000pt" height="300.000000pt" viewBox="0 0 300.000000 300.000000"
 preserveAspectRatio="xMidYMid meet">
<g transform="translate(0.000000,300.000000) scale(0.100000,-0.100000)"
fill="#eae4e4" stroke="none">
<path d="M288 2887 c-62 -20 -121 -69 -153 -128 -26 -47 -30 -64 -30 -129 0
-47 6 -85 15 -102 22 -39 81 -101 564 -585 l440 -442 -490 -493 c-270 -271
-499 -509 -510 -528 -26 -50 -26 -171 1 -225 25 -50 80 -105 130 -130 54 -27
175 -27 225 0 19 10 257 239 528 509 l493 490 442 -440 c606 -604 569 -572
660 -581 106 -11 209 43 261 137 27 48 31 65 31 130 0 54 -6 85 -19 110 -11
19 -240 257 -509 528 l-491 492 491 493 c269 270 498 508 508 527 27 50 27
171 0 225 -25 50 -80 105 -130 130 -54 27 -175 27 -225 1 -19 -11 -257 -240
-527 -509 l-493 -491 -492 491 c-271 269 -509 498 -528 508 -43 22 -143 29
-192 12z"/>
</g>
</svg>
